
<svg viewBox="0 0 300 148.1692" width="5000px" height="2469.486745198568px" xmlns="http://www.w3.org/2000/svg" xmlns:xlink="http://www.w3.org/1999/xlink" preserveAspectRatio="none"><defs></defs><style>.companyNameZd6l5QxLD {fill:#516fca;fill-opacity:1;}.icon1Zd6l5QxLD {fill:#92e0e1;fill-opacity:1;}.icon2Zd6l5QxLD {fill:#32b7c6;fill-opacity:1;}.icon3Zd6l5QxLD {fill:#328490;fill-opacity:1;}</style><g opacity="1" transform="rotate(0 0 87.1018)">
        <svg width="300" height="61.0674" x="0" y="87.1018" version="1.1" preserveAspectRatio="none" viewBox="2.56 -31.64 157.39999999999998 32.04">
          <g transform="matrix(1 0 0 1 0 0)" class="companyNameZd6l5QxLD"><path transform="" stroke="none" d="M26.40-16.20Q27.28-16.20 27.86-15.62Q28.44-15.04 28.44-14.12L28.44-14.12L28.44-4.56Q28.44-3.60 27.80-3.08L27.80-3.08Q23.60 0.40 18 0.40L18 0.40Q13.72 0.40 10.18-1.72Q6.64-3.84 4.60-7.52Q2.56-11.20 2.56-15.64L2.56-15.64Q2.56-20.04 4.60-23.70Q6.64-27.36 10.18-29.50Q13.72-31.64 18-31.64L18-31.64Q21.04-31.64 23.26-30.84Q25.48-30.04 27.76-28.20L27.76-28.20Q28.24-27.84 28.40-27.46Q28.56-27.08 28.56-26.56L28.56-26.56Q28.56-25.76 27.98-25.24Q27.40-24.72 26.60-24.72L26.60-24.72Q25.88-24.72 25.24-25.24L25.24-25.24Q23.60-26.64 22.04-27.26Q20.48-27.88 18-27.88L18-27.88Q14.88-27.88 12.26-26.24Q9.64-24.60 8.10-21.78Q6.56-18.96 6.56-15.64L6.56-15.64Q6.56-12.28 8.10-9.48Q9.64-6.68 12.26-5.04Q14.88-3.40 18-3.40L18-3.40Q21.36-3.40 24.44-5.40L24.44-5.40L24.44-12.52L18.92-12.52Q18-12.52 17.42-13.04Q16.84-13.56 16.84-14.36L16.84-14.36Q16.84-15.16 17.42-15.68Q18-16.20 18.92-16.20L18.92-16.20L26.40-16.20Z"></path>
    <path transform="" stroke="none" d="M52.72-11.28Q52.72-10.52 52.20-10.02Q51.68-9.52 50.88-9.52L50.88-9.52L35.68-9.52Q36.12-6.72 38.22-5Q40.32-3.28 43.36-3.28L43.36-3.28Q44.56-3.28 45.86-3.72Q47.16-4.16 48-4.80L48-4.80Q48.56-5.24 49.32-5.24L49.32-5.24Q50.08-5.24 50.52-4.84L50.52-4.84Q51.24-4.24 51.24-3.48L51.24-3.48Q51.24-2.76 50.60-2.28L50.60-2.28Q49.24-1.20 47.22-0.52Q45.20 0.16 43.36 0.16L43.36 0.16Q40.08 0.16 37.48-1.26Q34.88-2.68 33.42-5.20Q31.96-7.72 31.96-10.92L31.96-10.92Q31.96-14.12 33.34-16.66Q34.72-19.20 37.18-20.62Q39.64-22.04 42.76-22.04L42.76-22.04Q45.84-22.04 48.08-20.68Q50.32-19.32 51.52-16.88Q52.72-14.44 52.72-11.28L52.72-11.28ZM42.76-18.60Q39.84-18.60 38.02-17Q36.20-15.40 35.72-12.72L35.72-12.72L49.04-12.72Q48.68-15.40 47.04-17Q45.40-18.60 42.76-18.60L42.76-18.60Z"></path>
    <path transform="" stroke="none" d="M68.80-22.08Q71.56-22.08 73.76-20.88Q75.96-19.68 77.20-17.38Q78.44-15.08 78.44-11.84L78.44-11.84L78.44-2Q78.44-1.12 77.86-0.54Q77.28 0.04 76.40 0.04L76.40 0.04Q75.52 0.04 74.94-0.54Q74.36-1.12 74.36-2L74.36-2L74.36-11.84Q74.36-15.08 72.62-16.74Q70.88-18.40 68-18.40L68-18.40Q66.32-18.40 64.94-17.72Q63.56-17.04 62.78-15.88Q62-14.72 62-13.28L62-13.28L62-2Q62-1.12 61.44-0.54Q60.88 0.04 59.96 0.04L59.96 0.04Q59.08 0.04 58.50-0.54Q57.92-1.12 57.92-2L57.92-2L57.92-19.84Q57.92-20.76 58.50-21.32Q59.08-21.88 59.96-21.88L59.96-21.88Q60.88-21.88 61.44-21.32Q62-20.76 62-19.84L62-19.84L62-19.40Q63.28-20.68 65.04-21.38Q66.80-22.08 68.80-22.08L68.80-22.08Z"></path>
    <path transform="" stroke="none" d="M95.12-22.04Q98.20-22.04 100.70-20.58Q103.20-19.12 104.66-16.58Q106.12-14.04 106.12-10.92L106.12-10.92L106.12-2Q106.12-1.12 105.54-0.54Q104.96 0.04 104.08 0.04L104.08 0.04Q103.20 0.04 102.62-0.54Q102.04-1.12 102.04-2L102.04-2L102.04-3.48Q100.64-1.76 98.64-0.80Q96.64 0.16 94.32 0.16L94.32 0.16Q91.44 0.16 89.10-1.28Q86.76-2.72 85.42-5.26Q84.08-7.80 84.08-10.92L84.08-10.92Q84.08-14.04 85.52-16.58Q86.96-19.12 89.50-20.58Q92.04-22.04 95.12-22.04L95.12-22.04ZM95.12-3.44Q97.12-3.44 98.74-4.42Q100.36-5.40 101.28-7.10Q102.20-8.80 102.20-10.92L102.20-10.92Q102.20-13.04 101.28-14.76Q100.36-16.48 98.74-17.46Q97.12-18.44 95.12-18.44L95.12-18.44Q93.12-18.44 91.50-17.46Q89.88-16.48 88.94-14.76Q88-13.04 88-10.92L88-10.92Q88-8.80 88.94-7.10Q89.88-5.40 91.50-4.42Q93.12-3.44 95.12-3.44L95.12-3.44Z"></path>
    <path transform="" stroke="none" d="M131.08-31.24Q132-31.24 132.56-30.68Q133.12-30.12 133.12-29.20L133.12-29.20L133.12-10.96Q133.12-7.84 131.66-5.30Q130.20-2.76 127.70-1.30Q125.20 0.16 122.12 0.16L122.12 0.16Q119.04 0.16 116.50-1.30Q113.96-2.76 112.52-5.30Q111.08-7.84 111.08-10.96L111.08-10.96Q111.08-14.08 112.42-16.62Q113.76-19.16 116.10-20.60Q118.44-22.04 121.32-22.04L121.32-22.04Q123.64-22.04 125.64-21.08Q127.64-20.12 129.04-18.40L129.04-18.40L129.04-29.20Q129.04-30.12 129.62-30.68Q130.20-31.24 131.08-31.24L131.08-31.24ZM122.12-3.44Q124.12-3.44 125.74-4.42Q127.36-5.40 128.28-7.12Q129.20-8.84 129.20-10.96L129.20-10.96Q129.20-13.08 128.28-14.78Q127.36-16.48 125.74-17.46Q124.12-18.44 122.12-18.44L122.12-18.44Q120.12-18.44 118.50-17.46Q116.88-16.48 115.94-14.78Q115-13.08 115-10.96L115-10.96Q115-8.84 115.94-7.12Q116.88-5.40 118.50-4.42Q120.12-3.44 122.12-3.44L122.12-3.44Z"></path>
    <path transform="" stroke="none" d="M159.96-11.28Q159.96-10.52 159.44-10.02Q158.92-9.52 158.12-9.52L158.12-9.52L142.92-9.52Q143.36-6.72 145.46-5Q147.56-3.28 150.60-3.28L150.60-3.28Q151.80-3.28 153.10-3.72Q154.40-4.16 155.24-4.80L155.24-4.80Q155.80-5.24 156.56-5.24L156.56-5.24Q157.32-5.24 157.76-4.84L157.76-4.84Q158.48-4.24 158.48-3.48L158.48-3.48Q158.48-2.76 157.84-2.28L157.84-2.28Q156.48-1.20 154.46-0.52Q152.44 0.16 150.60 0.16L150.60 0.16Q147.32 0.16 144.72-1.26Q142.12-2.68 140.66-5.20Q139.20-7.72 139.20-10.92L139.20-10.92Q139.20-14.12 140.58-16.66Q141.96-19.20 144.42-20.62Q146.88-22.04 150-22.04L150-22.04Q153.08-22.04 155.32-20.68Q157.56-19.32 158.76-16.88Q159.96-14.44 159.96-11.28L159.96-11.28ZM150-18.60Q147.08-18.60 145.26-17Q143.44-15.40 142.96-12.72L142.96-12.72L156.28-12.72Q155.92-15.40 154.28-17Q152.64-18.60 150-18.60L150-18.60Z"></path>
    </g>
        </svg>
      </g><g opacity="1" transform="rotate(0 115.9135 0)">
        <svg width="57.9568" height="57.9568" x="115.9135" y="0" version="1.1" preserveAspectRatio="none" viewBox="10.399999618530272 10.399999618530272 79.19999694824219 79.19999694824219">
          <g transform="matrix(1 0 0 1 0 0)" class="icon1Zd6l5QxLD"><title>104all</title><path d="M62.11,59.28,40.72,37.89a11,11,0,1,0-2.83,2.83L59.28,62.11a11,11,0,1,0,2.83-2.83ZM26.77,36.61a7,7,0,1,1,9.84,0A7,7,0,0,1,26.77,36.61ZM73.23,73.23a7,7,0,1,1,0-9.84A7,7,0,0,1,73.23,73.23Z"></path><path d="M74.66,22.51a11,11,0,1,0,2.83,2.83L89.6,13.23,86.77,10.4ZM73.38,36.46a7,7,0,1,1,0-9.84A7,7,0,0,1,73.38,36.46Z"></path><path d="M25.34,77.49a11,11,0,1,0-2.83-2.83L10.4,86.77l2.83,2.83Zm1.28-13.95a7,7,0,1,1,0,9.84A6.94,6.94,0,0,1,26.62,63.54Z"></path></g>
        </svg>
      </g></svg>